<svg width="243" height="11" viewBox="0 0 243 11" fill="none" xmlns="http://www.w3.org/2000/svg">
<path d="M2.02912 4.36364C2.02912 3.99432 2.11908 3.65814 2.29901 3.35511C2.47893 3.05208 2.72041 2.81061 3.02344 2.63068C3.32647 2.45076 3.66264 2.3608 4.03196 2.3608C4.35393 2.3608 4.65223 2.43182 4.92685 2.57386C5.20147 2.71591 5.42756 2.90885 5.60511 3.1527C5.78267 3.39654 5.8892 3.67116 5.92472 3.97656H4.87003C4.83452 3.79901 4.73627 3.65459 4.57528 3.54332C4.41667 3.42969 4.23556 3.37287 4.03196 3.37287C3.84967 3.37287 3.68277 3.41667 3.53125 3.50426C3.3821 3.59186 3.26255 3.71141 3.17259 3.86293C3.08262 4.01207 3.03764 4.17779 3.03764 4.36009C3.03764 4.54238 3.08262 4.70928 3.17259 4.8608C3.26255 5.00994 3.3821 5.1295 3.53125 5.21946C3.68277 5.30942 3.84967 5.3544 4.03196 5.3544C4.23556 5.3544 4.41193 5.29877 4.56108 5.1875C4.71023 5.07386 4.80374 4.92827 4.84162 4.75071H5.89631C5.8608 5.05611 5.75663 5.33073 5.58381 5.57457C5.41098 5.81842 5.18963 6.01136 4.91974 6.15341C4.64986 6.29545 4.35393 6.36648 4.03196 6.36648C3.66264 6.36648 3.32647 6.27652 3.02344 6.09659C2.72041 5.91667 2.47893 5.67519 2.29901 5.37216C2.11908 5.06913 2.02912 4.73295 2.02912 4.36364ZM4.00355 8.11364C3.48745 8.11364 3.00213 8.01657 2.54759 7.82244C2.09541 7.62831 1.6965 7.35961 1.35085 7.01634C1.00758 6.67069 0.737689 6.27178 0.541193 5.8196C0.347064 5.36742 0.251184 4.8821 0.253551 4.36364C0.255919 3.84517 0.354167 3.35985 0.548295 2.90767C0.744792 2.45549 1.01468 2.05777 1.35795 1.71449C1.70123 1.36884 2.09896 1.09896 2.55114 0.904829C3.00331 0.710701 3.48745 0.613636 4.00355 0.613636C4.52202 0.613636 5.00734 0.710701 5.45952 0.904829C5.91406 1.09896 6.31179 1.36884 6.6527 1.71449C6.99598 2.05777 7.26468 2.45549 7.45881 2.90767C7.65294 3.35985 7.75118 3.84517 7.75355 4.36364C7.75592 4.8821 7.66004 5.36742 7.46591 5.8196C7.27178 6.27178 7.00308 6.67069 6.6598 7.01634C6.31652 7.35961 5.91761 7.62831 5.46307 7.82244C5.00852 8.01657 4.52202 8.11364 4.00355 8.11364ZM4.00355 6.93111C4.36103 6.93111 4.69484 6.86482 5.00497 6.73224C5.31747 6.59967 5.59091 6.41619 5.82528 6.18182C6.05966 5.94508 6.24313 5.67282 6.37571 5.36506C6.50829 5.05492 6.57339 4.7223 6.57102 4.36719C6.57102 4.00971 6.50355 3.6759 6.36861 3.36577C6.23603 3.05327 6.05256 2.77983 5.81818 2.54545C5.58381 2.31108 5.31155 2.1276 5.00142 1.99503C4.69129 1.86245 4.35866 1.79616 4.00355 1.79616C3.6508 1.79616 3.31937 1.86245 3.00923 1.99503C2.70147 2.1276 2.42921 2.31226 2.19247 2.54901C1.9581 2.78338 1.77344 3.05682 1.63849 3.36932C1.50355 3.67945 1.43608 4.01207 1.43608 4.36719C1.43371 4.71993 1.49882 5.05137 1.63139 5.36151C1.76634 5.66927 1.95099 5.94152 2.18537 6.17827C2.42211 6.41264 2.69555 6.5973 3.00568 6.73224C3.31581 6.86482 3.64844 6.93111 4.00355 6.93111ZM17.9435 3.27344H16.3881C16.3597 3.07221 16.3017 2.89347 16.2141 2.73722C16.1265 2.5786 16.0141 2.44366 15.8768 2.33239C15.7395 2.22112 15.5808 2.13589 15.4009 2.0767C15.2234 2.01752 15.0304 1.98793 14.8221 1.98793C14.4457 1.98793 14.1178 2.08144 13.8384 2.26847C13.5591 2.45312 13.3424 2.72301 13.1886 3.07812C13.0347 3.43087 12.9577 3.85937 12.9577 4.36364C12.9577 4.8821 13.0347 5.31771 13.1886 5.67045C13.3448 6.0232 13.5626 6.28954 13.842 6.46946C14.1213 6.64938 14.4445 6.73935 14.8114 6.73935C15.0174 6.73935 15.208 6.71212 15.3832 6.65767C15.5607 6.60322 15.7182 6.52391 15.8555 6.41974C15.9928 6.31321 16.1064 6.18419 16.1964 6.03267C16.2887 5.88116 16.3526 5.70833 16.3881 5.5142L17.9435 5.52131C17.9033 5.85511 17.8027 6.17708 17.6417 6.48722C17.4831 6.79498 17.2688 7.07079 16.9989 7.31463C16.7314 7.55611 16.4118 7.74787 16.0401 7.88991C15.6708 8.02959 15.253 8.09943 14.7866 8.09943C14.1379 8.09943 13.5579 7.95265 13.0465 7.65909C12.5375 7.36553 12.1351 6.94058 11.8391 6.38423C11.5456 5.82789 11.3988 5.15436 11.3988 4.36364C11.3988 3.57055 11.5479 2.89583 11.8462 2.33949C12.1445 1.78314 12.5494 1.35937 13.0607 1.06818C13.5721 0.774621 14.1474 0.627841 14.7866 0.627841C15.208 0.627841 15.5986 0.687026 15.9585 0.805398C16.3207 0.923769 16.6415 1.09659 16.9208 1.32386C17.2002 1.54877 17.4274 1.82457 17.6026 2.15128C17.7802 2.47798 17.8938 2.85204 17.9435 3.27344ZM21.4822 8.10653C20.9306 8.10653 20.4536 7.98935 20.0511 7.75497C19.651 7.51823 19.3421 7.18916 19.1243 6.76776C18.9065 6.34399 18.7976 5.85275 18.7976 5.29403C18.7976 4.73059 18.9065 4.23816 19.1243 3.81676C19.3421 3.39299 19.651 3.06392 20.0511 2.82955C20.4536 2.5928 20.9306 2.47443 21.4822 2.47443C22.0339 2.47443 22.5097 2.5928 22.9098 2.82955C23.3123 3.06392 23.6224 3.39299 23.8402 3.81676C24.058 4.23816 24.1669 4.73059 24.1669 5.29403C24.1669 5.85275 24.058 6.34399 23.8402 6.76776C23.6224 7.18916 23.3123 7.51823 22.9098 7.75497C22.5097 7.98935 22.0339 8.10653 21.4822 8.10653ZM21.4893 6.93466C21.7403 6.93466 21.9498 6.86364 22.1179 6.72159C22.286 6.57718 22.4126 6.38068 22.4979 6.1321C22.5855 5.88352 22.6293 5.60062 22.6293 5.28338C22.6293 4.96615 22.5855 4.68324 22.4979 4.43466C22.4126 4.18608 22.286 3.98958 22.1179 3.84517C21.9498 3.70076 21.7403 3.62855 21.4893 3.62855C21.236 3.62855 21.023 3.70076 20.8501 3.84517C20.6797 3.98958 20.5507 4.18608 20.4631 4.43466C20.3778 4.68324 20.3352 4.96615 20.3352 5.28338C20.3352 5.60062 20.3778 5.88352 20.4631 6.1321C20.5507 6.38068 20.6797 6.57718 20.8501 6.72159C21.023 6.86364 21.236 6.93466 21.4893 6.93466ZM25.1506 10.0455V2.54545H26.642V3.46165H26.7095C26.7758 3.31487 26.8717 3.16572 26.9972 3.0142C27.125 2.86032 27.2907 2.73248 27.4943 2.63068C27.7003 2.52652 27.956 2.47443 28.2614 2.47443C28.6591 2.47443 29.026 2.5786 29.3622 2.78693C29.6984 2.9929 29.9671 3.30421 30.1683 3.72088C30.3696 4.13518 30.4702 4.65483 30.4702 5.27983C30.4702 5.88826 30.3719 6.40199 30.1754 6.82102C29.9813 7.23769 29.7161 7.55374 29.38 7.76918C29.0462 7.98224 28.6721 8.08878 28.2578 8.08878C27.9643 8.08878 27.7145 8.04025 27.5085 7.94318C27.3049 7.84612 27.138 7.7242 27.0078 7.57741C26.8776 7.42827 26.7782 7.27794 26.7095 7.12642H26.6634V10.0455H25.1506ZM26.6314 5.27273C26.6314 5.59706 26.6764 5.87997 26.7663 6.12145C26.8563 6.36293 26.9865 6.55114 27.157 6.68608C27.3274 6.81866 27.5346 6.88494 27.7784 6.88494C28.0246 6.88494 28.233 6.81747 28.4034 6.68253C28.5739 6.54522 28.7029 6.35582 28.7905 6.11435C28.8804 5.8705 28.9254 5.58996 28.9254 5.27273C28.9254 4.95786 28.8816 4.68087 28.794 4.44176C28.7064 4.20265 28.5774 4.01562 28.407 3.88068C28.2365 3.74574 28.027 3.67827 27.7784 3.67827C27.5322 3.67827 27.3239 3.74337 27.1534 3.87358C26.9853 4.00379 26.8563 4.18845 26.7663 4.42756C26.6764 4.66667 26.6314 4.94839 26.6314 5.27273ZM32.2369 10.0455C32.0451 10.0455 31.8652 10.0301 31.6971 9.99929C31.5314 9.97088 31.3941 9.93419 31.2852 9.8892L31.6261 8.75994C31.8036 8.81439 31.9634 8.84399 32.1055 8.84872C32.2499 8.85346 32.3742 8.82031 32.4783 8.74929C32.5849 8.67827 32.6713 8.55753 32.7376 8.38707L32.8263 8.15625L30.8697 2.54545H32.4606L33.5898 6.55114H33.6467L34.7866 2.54545H36.3881L34.2681 8.58949C34.1663 8.88305 34.0278 9.13873 33.8526 9.35653C33.6798 9.5767 33.4608 9.74598 33.1957 9.86435C32.9305 9.98509 32.6109 10.0455 32.2369 10.0455ZM37.1623 8V2.54545H38.6289V3.49716H38.6857C38.7852 3.15862 38.9521 2.90294 39.1864 2.73011C39.4208 2.55492 39.6907 2.46733 39.9961 2.46733C40.0719 2.46733 40.1535 2.47206 40.2411 2.48153C40.3287 2.491 40.4057 2.50402 40.4719 2.5206V3.86293C40.4009 3.84162 40.3027 3.82268 40.1772 3.80611C40.0517 3.78954 39.9369 3.78125 39.8327 3.78125C39.6102 3.78125 39.4113 3.82978 39.2362 3.92685C39.0633 4.02154 38.926 4.15412 38.8242 4.32457C38.7248 4.49503 38.6751 4.69152 38.6751 4.91406V8H37.1623ZM41.2541 8V2.54545H42.7669V8H41.2541ZM42.014 1.84233C41.7891 1.84233 41.5962 1.76776 41.4352 1.61861C41.2766 1.46709 41.1973 1.28598 41.1973 1.07528C41.1973 0.86695 41.2766 0.68821 41.4352 0.539062C41.5962 0.387547 41.7891 0.311789 42.014 0.311789C42.2389 0.311789 42.4307 0.387547 42.5893 0.539062C42.7503 0.68821 42.8308 0.86695 42.8308 1.07528C42.8308 1.28598 42.7503 1.46709 42.5893 1.61861C42.4307 1.76776 42.2389 1.84233 42.014 1.84233ZM46.4361 10.1591C45.946 10.1591 45.5258 10.0916 45.1754 9.95668C44.8274 9.8241 44.5504 9.64299 44.3445 9.41335C44.1385 9.18371 44.0047 8.92566 43.9432 8.6392L45.3423 8.45099C45.3849 8.5599 45.4524 8.6617 45.5447 8.75639C45.6371 8.85109 45.759 8.92685 45.9105 8.98366C46.0644 9.04285 46.2514 9.07244 46.4716 9.07244C46.8007 9.07244 47.0717 8.99195 47.2848 8.83097C47.5002 8.67235 47.608 8.40601 47.608 8.03196V7.03409H47.544C47.4777 7.18561 47.3783 7.32884 47.2457 7.46378C47.1132 7.59872 46.9427 7.70881 46.7344 7.79403C46.526 7.87926 46.2775 7.92188 45.9886 7.92188C45.5791 7.92188 45.2062 7.82718 44.87 7.63778C44.5362 7.44602 44.2699 7.15365 44.071 6.76065C43.8745 6.36529 43.7763 5.86577 43.7763 5.26207C43.7763 4.64418 43.8769 4.12808 44.0781 3.71378C44.2794 3.29948 44.5469 2.98935 44.8807 2.78338C45.2169 2.57741 45.585 2.47443 45.9851 2.47443C46.2905 2.47443 46.5462 2.52652 46.7521 2.63068C46.9581 2.73248 47.1238 2.86032 47.2493 3.0142C47.3771 3.16572 47.4754 3.31487 47.544 3.46165H47.6009V2.54545H49.103V8.05327C49.103 8.51728 48.9893 8.90554 48.7621 9.21804C48.5348 9.53054 48.2199 9.76491 47.8175 9.92116C47.4174 10.0798 46.9569 10.1591 46.4361 10.1591ZM46.468 6.78551C46.7119 6.78551 46.9179 6.72514 47.0859 6.6044C47.2564 6.4813 47.3866 6.30611 47.4766 6.07884C47.5689 5.8492 47.6151 5.57457 47.6151 5.25497C47.6151 4.93537 47.5701 4.65838 47.4801 4.42401C47.3902 4.18726 47.2599 4.00379 47.0895 3.87358C46.919 3.74337 46.7119 3.67827 46.468 3.67827C46.2195 3.67827 46.0099 3.74574 45.8395 3.88068C45.669 4.01326 45.54 4.19792 45.4524 4.43466C45.3648 4.6714 45.321 4.94484 45.321 5.25497C45.321 5.56984 45.3648 5.84209 45.4524 6.07173C45.5424 6.29901 45.6714 6.47538 45.8395 6.60085C46.0099 6.72396 46.2195 6.78551 46.468 6.78551ZM51.8196 4.84659V8H50.3068V0.727273H51.777V3.50781H51.8409C51.964 3.18584 52.1629 2.93371 52.4375 2.75142C52.7121 2.56676 53.0566 2.47443 53.4709 2.47443C53.8497 2.47443 54.1799 2.55729 54.4616 2.72301C54.7457 2.88636 54.9659 3.12192 55.1222 3.42969C55.2808 3.73509 55.3589 4.10085 55.3565 4.52699V8H53.8438V4.79688C53.8461 4.4607 53.7609 4.1991 53.5881 4.01207C53.4176 3.82505 53.1785 3.73153 52.8707 3.73153C52.6648 3.73153 52.4825 3.77533 52.3239 3.86293C52.1676 3.95052 52.0445 4.07836 51.9545 4.24645C51.867 4.41217 51.822 4.61222 51.8196 4.84659ZM59.4483 2.54545V3.68182H56.1635V2.54545H59.4483ZM56.9093 1.23864H58.4221V6.32386C58.4221 6.46354 58.4434 6.57244 58.486 6.65057C58.5286 6.72633 58.5878 6.77959 58.6635 6.81037C58.7417 6.84115 58.8316 6.85653 58.9334 6.85653C59.0044 6.85653 59.0755 6.85062 59.1465 6.83878C59.2175 6.82457 59.272 6.81392 59.3098 6.80682L59.5478 7.93253C59.472 7.9562 59.3655 7.98343 59.2282 8.0142C59.0908 8.04735 58.9239 8.06747 58.7275 8.07457C58.3629 8.08878 58.0433 8.04025 57.7686 7.92898C57.4964 7.81771 57.2845 7.64489 57.133 7.41051C56.9815 7.17614 56.9069 6.88021 56.9093 6.52273V1.23864ZM62.7766 8V0.727273H67.6772V1.99503H64.3143V3.72798H67.4251V4.99574H64.3143V6.73224H67.6914V8H62.7766ZM71.7725 2.54545V3.68182H68.4877V2.54545H71.7725ZM69.2335 1.23864H70.7463V6.32386C70.7463 6.46354 70.7676 6.57244 70.8102 6.65057C70.8528 6.72633 70.912 6.77959 70.9877 6.81037C71.0659 6.84115 71.1558 6.85653 71.2576 6.85653C71.3287 6.85653 71.3997 6.85062 71.4707 6.83878C71.5417 6.82457 71.5962 6.81392 71.6341 6.80682L71.872 7.93253C71.7962 7.9562 71.6897 7.98343 71.5524 8.0142C71.4151 8.04735 71.2482 8.06747 71.0517 8.07457C70.6871 8.08878 70.3675 8.04025 70.0929 7.92898C69.8206 7.81771 69.6087 7.64489 69.4572 7.41051C69.3057 7.17614 69.2311 6.88021 69.2335 6.52273V1.23864ZM74.388 4.84659V8H72.8752V0.727273H74.3453V3.50781H74.4093C74.5324 3.18584 74.7312 2.93371 75.0059 2.75142C75.2805 2.56676 75.6249 2.47443 76.0392 2.47443C76.418 2.47443 76.7483 2.55729 77.03 2.72301C77.3141 2.88636 77.5343 3.12192 77.6905 3.42969C77.8491 3.73509 77.9273 4.10085 77.9249 4.52699V8H76.4121V4.79688C76.4145 4.4607 76.3292 4.1991 76.1564 4.01207C75.986 3.82505 75.7469 3.73153 75.4391 3.73153C75.2331 3.73153 75.0508 3.77533 74.8922 3.86293C74.736 3.95052 74.6129 4.07836 74.5229 4.24645C74.4353 4.41217 74.3903 4.61222 74.388 4.84659ZM79.1154 8V2.54545H80.6282V8H79.1154ZM79.8754 1.84233C79.6504 1.84233 79.4575 1.76776 79.2965 1.61861C79.1379 1.46709 79.0586 1.28598 79.0586 1.07528C79.0586 0.86695 79.1379 0.68821 79.2965 0.539062C79.4575 0.387547 79.6504 0.311789 79.8754 0.311789C80.1003 0.311789 80.292 0.387547 80.4506 0.539062C80.6116 0.68821 80.6921 0.86695 80.6921 1.07528C80.6921 1.28598 80.6116 1.46709 80.4506 1.61861C80.292 1.76776 80.1003 1.84233 79.8754 1.84233ZM84.3045 8.10653C83.7529 8.10653 83.2759 7.98935 82.8734 7.75497C82.4733 7.51823 82.1644 7.18916 81.9466 6.76776C81.7288 6.34399 81.6199 5.85275 81.6199 5.29403C81.6199 4.73059 81.7288 4.23816 81.9466 3.81676C82.1644 3.39299 82.4733 3.06392 82.8734 2.82955C83.2759 2.5928 83.7529 2.47443 84.3045 2.47443C84.8561 2.47443 85.332 2.5928 85.7321 2.82955C86.1345 3.06392 86.4447 3.39299 86.6625 3.81676C86.8803 4.23816 86.9892 4.73059 86.9892 5.29403C86.9892 5.85275 86.8803 6.34399 86.6625 6.76776C86.4447 7.18916 86.1345 7.51823 85.7321 7.75497C85.332 7.98935 84.8561 8.10653 84.3045 8.10653ZM84.3116 6.93466C84.5626 6.93466 84.7721 6.86364 84.9402 6.72159C85.1083 6.57718 85.2349 6.38068 85.3201 6.1321C85.4077 5.88352 85.4515 5.60062 85.4515 5.28338C85.4515 4.96615 85.4077 4.68324 85.3201 4.43466C85.2349 4.18608 85.1083 3.98958 84.9402 3.84517C84.7721 3.70076 84.5626 3.62855 84.3116 3.62855C84.0583 3.62855 83.8452 3.70076 83.6724 3.84517C83.502 3.98958 83.3729 4.18608 83.2853 4.43466C83.2001 4.68324 83.1575 4.96615 83.1575 5.28338C83.1575 5.60062 83.2001 5.88352 83.2853 6.1321C83.3729 6.38068 83.502 6.57718 83.6724 6.72159C83.8452 6.86364 84.0583 6.93466 84.3116 6.93466ZM92.5112 4.10085L91.1262 4.18608C91.1026 4.06771 91.0517 3.96117 90.9735 3.86648C90.8954 3.76941 90.7924 3.69247 90.6646 3.63565C90.5391 3.57647 90.3888 3.54688 90.2136 3.54688C89.9792 3.54688 89.7815 3.59659 89.6206 3.69602C89.4596 3.79309 89.3791 3.9233 89.3791 4.08665C89.3791 4.21686 89.4312 4.32694 89.5353 4.4169C89.6395 4.50687 89.8182 4.57907 90.0716 4.63352L91.0588 4.83239C91.5891 4.94129 91.9844 5.11648 92.2449 5.35795C92.5053 5.59943 92.6355 5.91667 92.6355 6.30966C92.6355 6.66714 92.5301 6.98082 92.3194 7.25071C92.1111 7.5206 91.8246 7.7313 91.46 7.88281C91.0978 8.03196 90.68 8.10653 90.2065 8.10653C89.4844 8.10653 88.9092 7.9562 88.4806 7.65554C88.0545 7.35251 87.8047 6.94058 87.7314 6.41974L89.2193 6.34162C89.2643 6.56179 89.3732 6.72988 89.546 6.84588C89.7188 6.95952 89.9402 7.01634 90.21 7.01634C90.4752 7.01634 90.6883 6.96544 90.8493 6.86364C91.0126 6.75947 91.0955 6.62571 91.0978 6.46236C91.0955 6.32505 91.0375 6.21259 90.9238 6.125C90.8102 6.03504 90.635 5.96638 90.3983 5.91903L89.4537 5.73082C88.921 5.62429 88.5244 5.43963 88.264 5.17685C88.006 4.91406 87.877 4.57907 87.877 4.17188C87.877 3.8215 87.9717 3.51965 88.161 3.26634C88.3528 3.01302 88.6215 2.81771 88.9672 2.6804C89.3152 2.54309 89.7224 2.47443 90.1887 2.47443C90.8777 2.47443 91.4198 2.62003 91.8152 2.91122C92.2129 3.20241 92.4449 3.59896 92.5112 4.10085ZM96.4893 2.54545V3.68182H93.2045V2.54545H96.4893ZM93.9503 1.23864H95.4631V6.32386C95.4631 6.46354 95.4844 6.57244 95.527 6.65057C95.5696 6.72633 95.6288 6.77959 95.7045 6.81037C95.7827 6.84115 95.8726 6.85653 95.9744 6.85653C96.0455 6.85653 96.1165 6.85062 96.1875 6.83878C96.2585 6.82457 96.313 6.81392 96.3509 6.80682L96.5888 7.93253C96.513 7.9562 96.4065 7.98343 96.2692 8.0142C96.1319 8.04735 95.965 8.06747 95.7685 8.07457C95.4039 8.08878 95.0843 8.04025 94.8097 7.92898C94.5374 7.81771 94.3255 7.64489 94.174 7.41051C94.0225 7.17614 93.9479 6.88021 93.9503 6.52273V1.23864ZM99.0302 8.10298C98.6822 8.10298 98.372 8.04261 98.0998 7.92188C97.8275 7.79877 97.6121 7.61766 97.4535 7.37855C97.2972 7.13707 97.2191 6.83641 97.2191 6.47656C97.2191 6.17353 97.2747 5.91903 97.386 5.71307C97.4973 5.5071 97.6488 5.34138 97.8406 5.21591C98.0323 5.09044 98.2501 4.99574 98.494 4.93182C98.7402 4.8679 98.9982 4.82292 99.2681 4.79688C99.5853 4.76373 99.841 4.73295 100.035 4.70455C100.229 4.67377 100.37 4.62879 100.458 4.5696C100.545 4.51042 100.589 4.42282 100.589 4.30682V4.28551C100.589 4.06061 100.518 3.8866 100.376 3.76349C100.236 3.64039 100.038 3.57884 99.7795 3.57884C99.5072 3.57884 99.2906 3.6392 99.1296 3.75994C98.9686 3.87831 98.8621 4.02746 98.81 4.20739L97.4109 4.09375C97.4819 3.76231 97.6216 3.47585 97.8299 3.23438C98.0382 2.99053 98.3069 2.8035 98.636 2.6733C98.9674 2.54072 99.351 2.47443 99.7866 2.47443C100.09 2.47443 100.38 2.50994 100.657 2.58097C100.936 2.65199 101.183 2.76207 101.399 2.91122C101.617 3.06037 101.788 3.25213 101.914 3.48651C102.039 3.71851 102.102 3.99669 102.102 4.32102V8H100.667V7.24361H100.625C100.537 7.41406 100.42 7.56439 100.273 7.6946C100.126 7.82244 99.9499 7.92306 99.744 7.99645C99.538 8.06747 99.3001 8.10298 99.0302 8.10298ZM99.4634 7.05895C99.686 7.05895 99.8825 7.01515 100.053 6.92756C100.223 6.83759 100.357 6.71686 100.454 6.56534C100.551 6.41383 100.6 6.24219 100.6 6.05043V5.47159C100.552 5.50237 100.487 5.53078 100.404 5.55682C100.324 5.58049 100.233 5.60298 100.131 5.62429C100.029 5.64323 99.9274 5.66098 99.8256 5.67756C99.7238 5.69176 99.6315 5.70478 99.5487 5.71662C99.3711 5.74266 99.216 5.78409 99.0835 5.84091C98.9509 5.89773 98.8479 5.97467 98.7745 6.07173C98.7011 6.16643 98.6644 6.2848 98.6644 6.42685C98.6644 6.63281 98.739 6.79025 98.8881 6.89915C99.0397 7.00568 99.2314 7.05895 99.4634 7.05895ZM103.276 8V2.54545H104.742V3.49716H104.799C104.898 3.15862 105.065 2.90294 105.3 2.73011C105.534 2.55492 105.804 2.46733 106.109 2.46733C106.185 2.46733 106.267 2.47206 106.354 2.48153C106.442 2.491 106.519 2.50402 106.585 2.5206V3.86293C106.514 3.84162 106.416 3.82268 106.29 3.80611C106.165 3.78954 106.05 3.78125 105.946 3.78125C105.723 3.78125 105.525 3.82978 105.349 3.92685C105.177 4.02154 105.039 4.15412 104.938 4.32457C104.838 4.49503 104.788 4.69152 104.788 4.91406V8H103.276ZM111.906 4.10085L110.521 4.18608C110.497 4.06771 110.446 3.96117 110.368 3.86648C110.29 3.76941 110.187 3.69247 110.059 3.63565C109.934 3.57647 109.783 3.54688 109.608 3.54688C109.374 3.54688 109.176 3.59659 109.015 3.69602C108.854 3.79309 108.774 3.9233 108.774 4.08665C108.774 4.21686 108.826 4.32694 108.93 4.4169C109.034 4.50687 109.213 4.57907 109.466 4.63352L110.453 4.83239C110.984 4.94129 111.379 5.11648 111.639 5.35795C111.9 5.59943 112.03 5.91667 112.03 6.30966C112.03 6.66714 111.925 6.98082 111.714 7.25071C111.506 7.5206 111.219 7.7313 110.855 7.88281C110.492 8.03196 110.075 8.10653 109.601 8.10653C108.879 8.10653 108.304 7.9562 107.875 7.65554C107.449 7.35251 107.199 6.94058 107.126 6.41974L108.614 6.34162C108.659 6.56179 108.768 6.72988 108.941 6.84588C109.113 6.95952 109.335 7.01634 109.605 7.01634C109.87 7.01634 110.083 6.96544 110.244 6.86364C110.407 6.75947 110.49 6.62571 110.492 6.46236C110.49 6.32505 110.432 6.21259 110.318 6.125C110.205 6.03504 110.03 5.96638 109.793 5.91903L108.848 5.73082C108.316 5.62429 107.919 5.43963 107.659 5.17685C107.401 4.91406 107.271 4.57907 107.271 4.17188C107.271 3.8215 107.366 3.51965 107.556 3.26634C107.747 3.01302 108.016 2.81771 108.362 2.6804C108.71 2.54309 109.117 2.47443 109.583 2.47443C110.272 2.47443 110.814 2.62003 111.21 2.91122C111.607 3.20241 111.839 3.59896 111.906 4.10085ZM115.283 8V6.89205L117.872 4.49503C118.092 4.28196 118.276 4.0902 118.426 3.91974C118.577 3.74929 118.692 3.58239 118.77 3.41903C118.848 3.25331 118.887 3.07457 118.887 2.88281C118.887 2.66974 118.839 2.48627 118.742 2.33239C118.645 2.17614 118.512 2.05658 118.344 1.97372C118.176 1.88849 117.985 1.84588 117.772 1.84588C117.55 1.84588 117.356 1.89086 117.19 1.98082C117.024 2.07079 116.896 2.19981 116.806 2.3679C116.716 2.53598 116.671 2.73603 116.671 2.96804H115.212C115.212 2.49219 115.32 2.07907 115.535 1.72869C115.75 1.37831 116.052 1.10724 116.441 0.915483C116.829 0.723721 117.276 0.627841 117.783 0.627841C118.304 0.627841 118.757 0.72017 119.143 0.904829C119.531 1.08712 119.833 1.34044 120.048 1.66477C120.264 1.98911 120.372 2.3608 120.372 2.77983C120.372 3.05445 120.317 3.32552 120.208 3.59304C120.102 3.86056 119.911 4.15767 119.637 4.48438C119.362 4.80871 118.975 5.19815 118.475 5.6527L117.414 6.69318V6.7429H120.468V8H115.283ZM124.433 8.1598C123.822 8.15743 123.297 8.0071 122.857 7.70881C122.419 7.41051 122.081 6.97846 121.844 6.41264C121.61 5.84683 121.494 5.16619 121.496 4.37074C121.496 3.57765 121.614 2.90175 121.848 2.34304C122.085 1.78433 122.422 1.35937 122.86 1.06818C123.3 0.774621 123.825 0.627841 124.433 0.627841C125.042 0.627841 125.565 0.774621 126.003 1.06818C126.443 1.36174 126.782 1.78788 127.018 2.34659C127.255 2.90294 127.372 3.57765 127.37 4.37074C127.37 5.16856 127.252 5.85038 127.015 6.41619C126.781 6.98201 126.444 7.41406 126.006 7.71236C125.568 8.01065 125.044 8.1598 124.433 8.1598ZM124.433 6.88494C124.85 6.88494 125.183 6.67543 125.431 6.25639C125.68 5.83736 125.803 5.20881 125.8 4.37074C125.8 3.81913 125.744 3.35985 125.63 2.9929C125.519 2.62595 125.36 2.35014 125.154 2.16548C124.951 1.98082 124.71 1.88849 124.433 1.88849C124.019 1.88849 123.688 2.09564 123.439 2.50994C123.19 2.92424 123.065 3.54451 123.062 4.37074C123.062 4.92945 123.118 5.39583 123.229 5.76989C123.343 6.14157 123.503 6.42093 123.709 6.60795C123.915 6.79261 124.156 6.88494 124.433 6.88494ZM128.466 8V6.89205L131.055 4.49503C131.275 4.28196 131.46 4.0902 131.609 3.91974C131.761 3.74929 131.876 3.58239 131.954 3.41903C132.032 3.25331 132.071 3.07457 132.071 2.88281C132.071 2.66974 132.022 2.48627 131.925 2.33239C131.828 2.17614 131.696 2.05658 131.528 1.97372C131.359 1.88849 131.169 1.84588 130.956 1.84588C130.733 1.84588 130.539 1.89086 130.373 1.98082C130.208 2.07079 130.08 2.19981 129.99 2.3679C129.9 2.53598 129.855 2.73603 129.855 2.96804H128.395C128.395 2.49219 128.503 2.07907 128.719 1.72869C128.934 1.37831 129.236 1.10724 129.624 0.915483C130.012 0.723721 130.46 0.627841 130.966 0.627841C131.487 0.627841 131.941 0.72017 132.327 0.904829C132.715 1.08712 133.017 1.34044 133.232 1.66477C133.448 1.98911 133.555 2.3608 133.555 2.77983C133.555 3.05445 133.501 3.32552 133.392 3.59304C133.285 3.86056 133.095 4.15767 132.82 4.48438C132.546 4.80871 132.158 5.19815 131.659 5.6527L130.597 6.69318V6.7429H133.651V8H128.466ZM134.765 8V6.89205L137.354 4.49503C137.574 4.28196 137.759 4.0902 137.908 3.91974C138.06 3.74929 138.174 3.58239 138.252 3.41903C138.331 3.25331 138.37 3.07457 138.37 2.88281C138.37 2.66974 138.321 2.48627 138.224 2.33239C138.127 2.17614 137.994 2.05658 137.826 1.97372C137.658 1.88849 137.468 1.84588 137.255 1.84588C137.032 1.84588 136.838 1.89086 136.672 1.98082C136.507 2.07079 136.379 2.19981 136.289 2.3679C136.199 2.53598 136.154 2.73603 136.154 2.96804H134.694C134.694 2.49219 134.802 2.07907 135.017 1.72869C135.233 1.37831 135.535 1.10724 135.923 0.915483C136.311 0.723721 136.759 0.627841 137.265 0.627841C137.786 0.627841 138.239 0.72017 138.625 0.904829C139.014 1.08712 139.315 1.34044 139.531 1.66477C139.746 1.98911 139.854 2.3608 139.854 2.77983C139.854 3.05445 139.8 3.32552 139.691 3.59304C139.584 3.86056 139.394 4.15767 139.119 4.48438C138.844 4.80871 138.457 5.19815 137.958 5.6527L136.896 6.69318V6.7429H139.95V8H134.765ZM141.963 8.09233C141.728 8.09233 141.527 8.00947 141.359 7.84375C141.193 7.67566 141.11 7.47443 141.11 7.24006C141.11 7.00805 141.193 6.80919 141.359 6.64347C141.527 6.47775 141.728 6.39489 141.963 6.39489C142.19 6.39489 142.389 6.47775 142.559 6.64347C142.73 6.80919 142.815 7.00805 142.815 7.24006C142.815 7.39631 142.775 7.53954 142.694 7.66974C142.616 7.79759 142.513 7.90057 142.385 7.97869C142.257 8.05445 142.116 8.09233 141.963 8.09233ZM147.311 8H145.664L148.174 0.727273H150.156L152.663 8H151.015L149.194 2.3892H149.137L147.311 8ZM147.208 5.14134H151.1V6.34162H147.208V5.14134ZM155.023 0.727273V8H153.51V0.727273H155.023ZM157.747 0.727273V8H156.235V0.727273H157.747ZM161.302 8V0.727273H164.171C164.721 0.727273 165.189 0.825521 165.578 1.02202C165.968 1.21615 166.265 1.49195 166.469 1.84943C166.675 2.20455 166.778 2.6224 166.778 3.10298C166.778 3.58594 166.674 4.00142 166.465 4.34943C166.257 4.69508 165.955 4.96023 165.56 5.14489C165.167 5.32955 164.691 5.42188 164.132 5.42188H162.211V4.18608H163.884C164.177 4.18608 164.421 4.14583 164.615 4.06534C164.809 3.98485 164.954 3.86411 165.048 3.70312C165.146 3.54214 165.194 3.34209 165.194 3.10298C165.194 2.86151 165.146 2.65791 165.048 2.49219C164.954 2.32647 164.808 2.20099 164.612 2.11577C164.418 2.02817 164.173 1.98438 163.877 1.98438H162.84V8H161.302ZM165.23 4.69034L167.037 8H165.34L163.571 4.69034H165.23ZM167.836 8V2.54545H169.349V8H167.836ZM168.596 1.84233C168.371 1.84233 168.178 1.76776 168.017 1.61861C167.859 1.46709 167.779 1.28598 167.779 1.07528C167.779 0.86695 167.859 0.68821 168.017 0.539062C168.178 0.387547 168.371 0.311789 168.596 0.311789C168.821 0.311789 169.013 0.387547 169.171 0.539062C169.332 0.68821 169.413 0.86695 169.413 1.07528C169.413 1.28598 169.332 1.46709 169.171 1.61861C169.013 1.76776 168.821 1.84233 168.596 1.84233ZM173.018 10.1591C172.528 10.1591 172.108 10.0916 171.757 9.95668C171.409 9.8241 171.132 9.64299 170.926 9.41335C170.721 9.18371 170.587 8.92566 170.525 8.6392L171.924 8.45099C171.967 8.5599 172.034 8.6617 172.127 8.75639C172.219 8.85109 172.341 8.92685 172.493 8.98366C172.646 9.04285 172.833 9.07244 173.054 9.07244C173.383 9.07244 173.654 8.99195 173.867 8.83097C174.082 8.67235 174.19 8.40601 174.19 8.03196V7.03409H174.126C174.06 7.18561 173.96 7.32884 173.828 7.46378C173.695 7.59872 173.525 7.70881 173.316 7.79403C173.108 7.87926 172.859 7.92188 172.571 7.92188C172.161 7.92188 171.788 7.82718 171.452 7.63778C171.118 7.44602 170.852 7.15365 170.653 6.76065C170.457 6.36529 170.358 5.86577 170.358 5.26207C170.358 4.64418 170.459 4.12808 170.66 3.71378C170.861 3.29948 171.129 2.98935 171.463 2.78338C171.799 2.57741 172.167 2.47443 172.567 2.47443C172.873 2.47443 173.128 2.52652 173.334 2.63068C173.54 2.73248 173.706 2.86032 173.831 3.0142C173.959 3.16572 174.057 3.31487 174.126 3.46165H174.183V2.54545H175.685V8.05327C175.685 8.51728 175.571 8.90554 175.344 9.21804C175.117 9.53054 174.802 9.76491 174.4 9.92116C173.999 10.0798 173.539 10.1591 173.018 10.1591ZM173.05 6.78551C173.294 6.78551 173.5 6.72514 173.668 6.6044C173.838 6.4813 173.969 6.30611 174.059 6.07884C174.151 5.8492 174.197 5.57457 174.197 5.25497C174.197 4.93537 174.152 4.65838 174.062 4.42401C173.972 4.18726 173.842 4.00379 173.672 3.87358C173.501 3.74337 173.294 3.67827 173.05 3.67827C172.801 3.67827 172.592 3.74574 172.422 3.88068C172.251 4.01326 172.122 4.19792 172.034 4.43466C171.947 4.6714 171.903 4.94484 171.903 5.25497C171.903 5.56984 171.947 5.84209 172.034 6.07173C172.124 6.29901 172.253 6.47538 172.422 6.60085C172.592 6.72396 172.801 6.78551 173.05 6.78551ZM178.402 4.84659V8H176.889V0.727273H178.359V3.50781H178.423C178.546 3.18584 178.745 2.93371 179.02 2.75142C179.294 2.56676 179.639 2.47443 180.053 2.47443C180.432 2.47443 180.762 2.55729 181.044 2.72301C181.328 2.88636 181.548 3.12192 181.704 3.42969C181.863 3.73509 181.941 4.10085 181.939 4.52699V8H180.426V4.79688C180.428 4.4607 180.343 4.1991 180.17 4.01207C180 3.82505 179.761 3.73153 179.453 3.73153C179.247 3.73153 179.065 3.77533 178.906 3.86293C178.75 3.95052 178.627 4.07836 178.537 4.24645C178.449 4.41217 178.404 4.61222 178.402 4.84659ZM186.03 2.54545V3.68182H182.746V2.54545H186.03ZM183.491 1.23864H185.004V6.32386C185.004 6.46354 185.025 6.57244 185.068 6.65057C185.111 6.72633 185.17 6.77959 185.246 6.81037C185.324 6.84115 185.414 6.85653 185.515 6.85653C185.586 6.85653 185.657 6.85062 185.729 6.83878C185.8 6.82457 185.854 6.81392 185.892 6.80682L186.13 7.93253C186.054 7.9562 185.948 7.98343 185.81 8.0142C185.673 8.04735 185.506 8.06747 185.309 8.07457C184.945 8.08878 184.625 8.04025 184.351 7.92898C184.078 7.81771 183.867 7.64489 183.715 7.41051C183.564 7.17614 183.489 6.88021 183.491 6.52273V1.23864ZM191.486 4.10085L190.101 4.18608C190.077 4.06771 190.026 3.96117 189.948 3.86648C189.87 3.76941 189.767 3.69247 189.639 3.63565C189.514 3.57647 189.363 3.54688 189.188 3.54688C188.954 3.54688 188.756 3.59659 188.595 3.69602C188.434 3.79309 188.354 3.9233 188.354 4.08665C188.354 4.21686 188.406 4.32694 188.51 4.4169C188.614 4.50687 188.793 4.57907 189.046 4.63352L190.033 4.83239C190.564 4.94129 190.959 5.11648 191.219 5.35795C191.48 5.59943 191.61 5.91667 191.61 6.30966C191.61 6.66714 191.505 6.98082 191.294 7.25071C191.086 7.5206 190.799 7.7313 190.435 7.88281C190.072 8.03196 189.655 8.10653 189.181 8.10653C188.459 8.10653 187.884 7.9562 187.455 7.65554C187.029 7.35251 186.779 6.94058 186.706 6.41974L188.194 6.34162C188.239 6.56179 188.348 6.72988 188.521 6.84588C188.693 6.95952 188.915 7.01634 189.185 7.01634C189.45 7.01634 189.663 6.96544 189.824 6.86364C189.987 6.75947 190.07 6.62571 190.072 6.46236C190.07 6.32505 190.012 6.21259 189.898 6.125C189.785 6.03504 189.61 5.96638 189.373 5.91903L188.428 5.73082C187.896 5.62429 187.499 5.43963 187.239 5.17685C186.981 4.91406 186.852 4.57907 186.852 4.17188C186.852 3.8215 186.946 3.51965 187.136 3.26634C187.327 3.01302 187.596 2.81771 187.942 2.6804C188.29 2.54309 188.697 2.47443 189.163 2.47443C189.852 2.47443 190.394 2.62003 190.79 2.91122C191.188 3.20241 191.42 3.59896 191.486 4.10085ZM194.906 8V0.727273H197.775C198.324 0.727273 198.793 0.825521 199.181 1.02202C199.572 1.21615 199.869 1.49195 200.072 1.84943C200.278 2.20455 200.381 2.6224 200.381 3.10298C200.381 3.58594 200.277 4.00142 200.069 4.34943C199.861 4.69508 199.559 4.96023 199.163 5.14489C198.77 5.32955 198.295 5.42188 197.736 5.42188H195.815V4.18608H197.487C197.781 4.18608 198.025 4.14583 198.219 4.06534C198.413 3.98485 198.557 3.86411 198.652 3.70312C198.749 3.54214 198.798 3.34209 198.798 3.10298C198.798 2.86151 198.749 2.65791 198.652 2.49219C198.557 2.32647 198.412 2.20099 198.215 2.11577C198.021 2.02817 197.776 1.98438 197.48 1.98438H196.443V8H194.906ZM198.833 4.69034L200.641 8H198.943L197.175 4.69034H198.833ZM203.838 8.10653C203.276 8.10653 202.794 7.9929 202.389 7.76562C201.986 7.53598 201.676 7.21165 201.458 6.79261C201.24 6.37121 201.132 5.87287 201.132 5.29759C201.132 4.73651 201.24 4.24408 201.458 3.82031C201.676 3.39654 201.983 3.06629 202.378 2.82955C202.776 2.5928 203.242 2.47443 203.777 2.47443C204.137 2.47443 204.472 2.53243 204.782 2.64844C205.095 2.76207 205.367 2.93371 205.599 3.16335C205.833 3.39299 206.016 3.68182 206.146 4.02983C206.276 4.37547 206.341 4.7803 206.341 5.24432V5.6598H201.735V4.7223H204.917C204.917 4.5045 204.87 4.31155 204.775 4.14347C204.68 3.97538 204.549 3.84399 204.381 3.74929C204.215 3.65223 204.022 3.60369 203.802 3.60369C203.572 3.60369 203.369 3.65696 203.191 3.76349C203.016 3.86766 202.879 4.00852 202.779 4.18608C202.68 4.36127 202.629 4.55658 202.627 4.77202V5.66335C202.627 5.93324 202.676 6.16643 202.776 6.36293C202.878 6.55942 203.021 6.71094 203.205 6.81747C203.39 6.92401 203.609 6.97727 203.862 6.97727C204.03 6.97727 204.184 6.9536 204.324 6.90625C204.464 6.8589 204.583 6.78788 204.683 6.69318C204.782 6.59848 204.858 6.48248 204.91 6.34517L206.309 6.4375C206.238 6.77367 206.093 7.06723 205.872 7.31818C205.655 7.56676 205.373 7.76089 205.027 7.90057C204.684 8.03788 204.287 8.10653 203.838 8.10653ZM211.867 4.10085L210.482 4.18608C210.458 4.06771 210.407 3.96117 210.329 3.86648C210.251 3.76941 210.148 3.69247 210.02 3.63565C209.895 3.57647 209.744 3.54688 209.569 3.54688C209.335 3.54688 209.137 3.59659 208.976 3.69602C208.815 3.79309 208.735 3.9233 208.735 4.08665C208.735 4.21686 208.787 4.32694 208.891 4.4169C208.995 4.50687 209.174 4.57907 209.427 4.63352L210.414 4.83239C210.945 4.94129 211.34 5.11648 211.6 5.35795C211.861 5.59943 211.991 5.91667 211.991 6.30966C211.991 6.66714 211.886 6.98082 211.675 7.25071C211.467 7.5206 211.18 7.7313 210.816 7.88281C210.453 8.03196 210.035 8.10653 209.562 8.10653C208.84 8.10653 208.265 7.9562 207.836 7.65554C207.41 7.35251 207.16 6.94058 207.087 6.41974L208.575 6.34162C208.62 6.56179 208.729 6.72988 208.901 6.84588C209.074 6.95952 209.296 7.01634 209.566 7.01634C209.831 7.01634 210.044 6.96544 210.205 6.86364C210.368 6.75947 210.451 6.62571 210.453 6.46236C210.451 6.32505 210.393 6.21259 210.279 6.125C210.166 6.03504 209.99 5.96638 209.754 5.91903L208.809 5.73082C208.276 5.62429 207.88 5.43963 207.619 5.17685C207.361 4.91406 207.232 4.57907 207.232 4.17188C207.232 3.8215 207.327 3.51965 207.517 3.26634C207.708 3.01302 207.977 2.81771 208.323 2.6804C208.671 2.54309 209.078 2.47443 209.544 2.47443C210.233 2.47443 210.775 2.62003 211.171 2.91122C211.568 3.20241 211.8 3.59896 211.867 4.10085ZM215.429 8.10653C214.868 8.10653 214.385 7.9929 213.98 7.76562C213.578 7.53598 213.268 7.21165 213.05 6.79261C212.832 6.37121 212.723 5.87287 212.723 5.29759C212.723 4.73651 212.832 4.24408 213.05 3.82031C213.268 3.39654 213.574 3.06629 213.97 2.82955C214.368 2.5928 214.834 2.47443 215.369 2.47443C215.729 2.47443 216.064 2.53243 216.374 2.64844C216.686 2.76207 216.959 2.93371 217.191 3.16335C217.425 3.39299 217.607 3.68182 217.738 4.02983C217.868 4.37547 217.933 4.7803 217.933 5.24432V5.6598H213.327V4.7223H216.509C216.509 4.5045 216.462 4.31155 216.367 4.14347C216.272 3.97538 216.141 3.84399 215.973 3.74929C215.807 3.65223 215.614 3.60369 215.394 3.60369C215.164 3.60369 214.961 3.65696 214.783 3.76349C214.608 3.86766 214.471 4.00852 214.371 4.18608C214.272 4.36127 214.221 4.55658 214.218 4.77202V5.66335C214.218 5.93324 214.268 6.16643 214.368 6.36293C214.469 6.55942 214.613 6.71094 214.797 6.81747C214.982 6.92401 215.201 6.97727 215.454 6.97727C215.622 6.97727 215.776 6.9536 215.916 6.90625C216.056 6.8589 216.175 6.78788 216.275 6.69318C216.374 6.59848 216.45 6.48248 216.502 6.34517L217.901 6.4375C217.83 6.77367 217.684 7.06723 217.464 7.31818C217.246 7.56676 216.965 7.76089 216.619 7.90057C216.276 8.03788 215.879 8.10653 215.429 8.10653ZM218.92 8V2.54545H220.387V3.49716H220.444C220.543 3.15862 220.71 2.90294 220.944 2.73011C221.179 2.55492 221.449 2.46733 221.754 2.46733C221.83 2.46733 221.911 2.47206 221.999 2.48153C222.087 2.491 222.163 2.50402 222.23 2.5206V3.86293C222.159 3.84162 222.06 3.82268 221.935 3.80611C221.81 3.78954 221.695 3.78125 221.591 3.78125C221.368 3.78125 221.169 3.82978 220.994 3.92685C220.821 4.02154 220.684 4.15412 220.582 4.32457C220.483 4.49503 220.433 4.69152 220.433 4.91406V8H218.92ZM228.263 2.54545L226.356 8H224.652L222.745 2.54545H224.343L225.475 6.44815H225.532L226.662 2.54545H228.263ZM231.347 8.10653C230.786 8.10653 230.303 7.9929 229.898 7.76562C229.496 7.53598 229.186 7.21165 228.968 6.79261C228.75 6.37121 228.641 5.87287 228.641 5.29759C228.641 4.73651 228.75 4.24408 228.968 3.82031C229.186 3.39654 229.492 3.06629 229.888 2.82955C230.286 2.5928 230.752 2.47443 231.287 2.47443C231.647 2.47443 231.982 2.53243 232.292 2.64844C232.604 2.76207 232.877 2.93371 233.109 3.16335C233.343 3.39299 233.525 3.68182 233.656 4.02983C233.786 4.37547 233.851 4.7803 233.851 5.24432V5.6598H229.245V4.7223H232.427C232.427 4.5045 232.379 4.31155 232.285 4.14347C232.19 3.97538 232.059 3.84399 231.891 3.74929C231.725 3.65223 231.532 3.60369 231.312 3.60369C231.082 3.60369 230.879 3.65696 230.701 3.76349C230.526 3.86766 230.388 4.00852 230.289 4.18608C230.19 4.36127 230.139 4.55658 230.136 4.77202V5.66335C230.136 5.93324 230.186 6.16643 230.286 6.36293C230.387 6.55942 230.531 6.71094 230.715 6.81747C230.9 6.92401 231.119 6.97727 231.372 6.97727C231.54 6.97727 231.694 6.9536 231.834 6.90625C231.973 6.8589 232.093 6.78788 232.192 6.69318C232.292 6.59848 232.368 6.48248 232.42 6.34517L233.819 6.4375C233.748 6.77367 233.602 7.06723 233.382 7.31818C233.164 7.56676 232.883 7.76089 232.537 7.90057C232.194 8.03788 231.797 8.10653 231.347 8.10653ZM236.848 8.08878C236.434 8.08878 236.058 7.98224 235.722 7.76918C235.388 7.55374 235.123 7.23769 234.927 6.82102C234.733 6.40199 234.636 5.88826 234.636 5.27983C234.636 4.65483 234.736 4.13518 234.938 3.72088C235.139 3.30421 235.406 2.9929 235.74 2.78693C236.076 2.5786 236.444 2.47443 236.844 2.47443C237.15 2.47443 237.404 2.52652 237.608 2.63068C237.814 2.73248 237.98 2.86032 238.105 3.0142C238.233 3.16572 238.33 3.31487 238.396 3.46165H238.442V0.727273H239.952V8H238.46V7.12642H238.396C238.325 7.27794 238.225 7.42827 238.094 7.57741C237.967 7.7242 237.8 7.84612 237.594 7.94318C237.39 8.04025 237.142 8.08878 236.848 8.08878ZM237.327 6.88494C237.571 6.88494 237.777 6.81866 237.945 6.68608C238.116 6.55114 238.246 6.36293 238.336 6.12145C238.428 5.87997 238.474 5.59706 238.474 5.27273C238.474 4.94839 238.429 4.66667 238.339 4.42756C238.25 4.18845 238.119 4.00379 237.949 3.87358C237.778 3.74337 237.571 3.67827 237.327 3.67827C237.079 3.67827 236.869 3.74574 236.699 3.88068C236.528 4.01562 236.399 4.20265 236.312 4.44176C236.224 4.68087 236.18 4.95786 236.18 5.27273C236.18 5.58996 236.224 5.8705 236.312 6.11435C236.402 6.35582 236.531 6.54522 236.699 6.68253C236.869 6.81747 237.079 6.88494 237.327 6.88494ZM242.08 8.09233C241.845 8.09233 241.644 8.00947 241.476 7.84375C241.31 7.67566 241.227 7.47443 241.227 7.24006C241.227 7.00805 241.31 6.80919 241.476 6.64347C241.644 6.47775 241.845 6.39489 242.08 6.39489C242.307 6.39489 242.506 6.47775 242.676 6.64347C242.847 6.80919 242.932 7.00805 242.932 7.24006C242.932 7.39631 242.892 7.53954 242.811 7.66974C242.733 7.79759 242.63 7.90057 242.502 7.97869C242.374 8.05445 242.234 8.09233 242.08 8.09233Z" fill="white"/>
</svg>
